<svg width="200" height="200" viewBox="0 0 200 200" fill="none" xmlns="http://www.w3.org/2000/svg">
<path d="M87.2389 150.278C71.5637 143.393 58.672 129.549 51.1102 114.024C50.3797 112.548 49.1171 111.419 47.5883 110.875C46.0595 110.332 44.384 110.416 42.9148 111.11C41.4457 111.805 40.2976 113.055 39.7126 114.598C39.1275 116.141 39.1512 117.856 39.7786 119.381L46.7072 136.176L18.9617 116.971L16.3919 78.3058C16.285 76.6901 15.5818 75.1762 14.4244 74.0704C13.2671 72.9646 11.7421 72.3495 10.158 72.3495H8.88961C7.51908 72.3508 6.18687 72.812 5.09764 73.6624C4.00842 74.5127 3.22244 75.7052 2.86046 77.0565C-0.821336 90.7159 -2.80646 124.441 8.82795 138.961L54.498 173.384L57.3045 191.234C63.228 196.652 81.4674 203.502 96.745 197.926C96.7483 173.226 95.9677 155.219 87.2389 150.278Z" fill="#33B591"/>
<path d="M197.139 77.0565C196.777 75.7048 195.991 74.512 194.902 73.6616C193.812 72.8111 192.48 72.3501 191.109 72.3495H189.841C188.257 72.3492 186.732 72.9642 185.574 74.07C184.417 75.1758 183.713 76.6899 183.606 78.3058L181.039 116.971L153.293 136.176L160.23 119.381C160.815 117.96 160.877 116.371 160.405 114.907C159.933 113.442 158.96 112.202 157.663 111.414C156.927 110.963 156.108 110.672 155.257 110.56C154.406 110.448 153.541 110.516 152.717 110.761C151.893 111.006 151.128 111.422 150.468 111.984C149.809 112.546 149.27 113.24 148.886 114.024C141.325 129.557 128.436 143.388 112.757 150.278C104.027 155.219 103.248 173.226 103.248 197.926C118.524 203.504 136.764 196.652 142.688 191.234L145.495 173.384L191.17 138.963C202.805 124.441 200.823 90.7181 197.139 77.0565Z" fill="#33B591"/>
<path d="M127.281 113.711V98.691H141.974C155.935 98.691 167.437 87.9714 169.059 74.1465H132.222L121.617 94.3273C121.313 94.9069 120.848 95.3819 120.28 95.6929C119.713 96.0039 119.069 96.137 118.428 96.0756C117.787 96.0142 117.178 95.7611 116.677 95.3478C116.177 94.9346 115.806 94.3795 115.612 93.7521L103.272 53.8701V110.279C103.273 111.041 103.02 111.779 102.555 112.373C102.089 112.968 101.44 113.382 100.713 113.548C99.9865 113.714 99.2262 113.622 98.5578 113.286C97.8895 112.951 97.353 112.392 97.0369 111.703L78.4144 71.2325L72.4865 82.1051C72.1944 82.6317 71.7696 83.0687 71.2563 83.3706C70.743 83.6724 70.1599 83.8282 69.5677 83.8216C68.9748 83.8105 68.3959 83.6351 67.8929 83.314C67.3899 82.9928 66.9816 82.5381 66.7117 81.9982L62.7877 74.1465H30.942C32.5593 87.9714 44.0627 98.691 58.0203 98.691H72.7155V113.711C72.7155 129.114 84.9313 141.602 99.9987 141.602C115.065 141.602 127.281 129.114 127.281 113.711Z" fill="#33B591"/>
<path d="M67.7103 69.2775L69.756 73.371L75.8116 62.2756C76.1052 61.7381 76.538 61.2938 77.0625 60.9914C77.587 60.689 78.1829 60.5403 78.7847 60.5616C79.3865 60.5829 79.9709 60.7733 80.4738 61.112C80.9766 61.4508 81.3783 61.9246 81.6348 62.4815L96.7331 95.302V32.1901C96.7318 31.3906 97.0107 30.617 97.5192 30.0094C98.0277 29.4018 98.7322 29.0005 99.5051 28.8781C100.278 28.7556 101.068 28.9202 101.733 29.3419C102.397 29.7637 102.892 30.4147 103.128 31.1772L119.525 84.1772L127.385 69.2201C127.665 68.6871 128.082 68.2418 128.589 67.9314C129.097 67.6211 129.678 67.4573 130.27 67.4575H169.059C167.439 53.6337 155.936 42.9209 141.974 42.9209H127.282V27.8895C127.282 12.4866 115.066 0 99.9998 0C84.9324 0 72.7166 12.4866 72.7166 27.8895V42.9108H58.0214C44.0638 42.9108 32.5604 53.6292 30.942 67.4474H64.7926C65.3968 67.4474 65.9892 67.6184 66.5042 67.9415C67.0191 68.2645 67.4366 68.7269 67.7103 69.2775Z" fill="#33B591"/>
</svg>
